<?xml version="1.0" encoding="UTF-8"?>
<svg width="138px" height="34px" viewBox="0 0 138 34" version="1.1" xmlns="http://www.w3.org/2000/svg" xmlns:xlink="http://www.w3.org/1999/xlink">
    <title>Group 16</title>
    <g id="Page-1" stroke="none" stroke-width="1" fill="none" fill-rule="evenodd">
        <g id="Search-Results" transform="translate(-30.000000, -26.000000)" fill="#FEFEFE">
            <g id="Group-16" transform="translate(30.000000, 22.000000)">
                <g id="logo-image" transform="translate(0.000000, 4.000000)">
                    <path d="M22.6338434,7.65177973 C22.7908169,7.81812645 22.7998106,8.06607018 22.6538711,8.20279806 L22.5432818,8.30638104 C22.3973006,8.44310892 22.1494741,8.41888286 21.9925006,8.25257762 L21.0649832,7.26972156 C20.9080514,7.10341632 20.899016,6.85543111 21.0449972,6.71870323 L21.1555864,6.61516173 C21.301526,6.47843385 21.5493941,6.50261843 21.7063676,6.66896515 L22.6338434,7.65177973 Z M24.6791202,9.81909911 C24.8360936,9.98540435 24.8450873,10.2333481 24.6991062,10.370076 L24.5885585,10.4736589 C24.4425774,10.6103868 24.1947509,10.5861608 24.0377774,10.4198555 L23.1102599,9.43699945 C22.9532865,9.27069422 22.9442928,9.02275049 23.0902739,8.88602261 L23.2008632,8.78243963 C23.3468027,8.64571175 23.5946709,8.66993781 23.7516027,8.83624305 L24.6791202,9.81909911 Z M26.5817051,11.8351716 C26.7386369,12.0014768 26.7476723,12.2494205 26.6016911,12.3861484 L26.4911019,12.4897314 C26.3451624,12.6264593 26.0972942,12.6022332 25.9403624,12.435928 L25.0128449,11.4530719 C24.8558714,11.2867667 24.8468777,11.038823 24.9928589,10.9020951 L25.1034065,10.7985121 C25.2493877,10.6617842 25.4972142,10.6860103 25.6541877,10.8523155 L26.5817051,11.8351716 Z M28.5080651,13.8764242 C28.6649969,14.0427709 28.6740323,14.2907147 28.5280511,14.4274425 L28.4174619,14.5310255 C28.2715223,14.6677534 28.0236542,14.6435273 27.8666807,14.4772221 L26.9392049,13.494366 C26.7822314,13.3280193 26.7732377,13.0800756 26.9191772,12.9433477 L27.0297665,12.8398062 C27.1757477,12.7030783 27.4235742,12.7272629 27.5805477,12.8936096 L28.5080651,13.8764242 Z M24.7728462,13.8875416 C25.1492078,14.2864004 25.1108596,14.9371438 24.6875726,15.3336381 L12.1811597,27.0485125 C11.757831,27.4450067 11.1035806,27.4430985 10.7271774,27.0442397 L6.50704796,22.5723338 C6.13064476,22.1735165 6.16903455,21.5227731 6.59232161,21.1262789 L19.0987345,9.41140446 C19.5220215,9.01491021 20.1763135,9.01681843 20.5527168,9.41567721 L24.7728462,13.8875416 Z M27.6586596,2.22120232 L25.8694953,0.32526454 C25.4335504,-0.136689842 24.6367748,-0.102383424 24.0989013,0.401427278 L19.6667952,4.55304317 C19.7162606,4.57672995 19.7631444,4.60979187 19.8037826,4.65289268 L20.7313001,5.63570727 C20.8882319,5.80205399 20.8972673,6.04999771 20.7512861,6.18672559 L20.6406968,6.29030857 C20.4947573,6.42703645 20.2468891,6.4028104 20.0899157,6.23646368 L19.1624399,5.25364909 C19.12176,5.21054828 19.0915312,5.16193024 19.0708373,5.11123805 L0.464777224,22.5396867 C-0.0730962933,23.0435389 -0.156496251,23.8337066 0.279448611,24.2956609 L2.06365809,26.1863304 C2.07714865,26.1734292 2.08993137,26.1601131 2.10358848,26.1472949 C3.8364589,24.5241077 6.35019941,24.3833974 7.71820022,25.8329784 C9.08615939,27.2826009 8.79036643,29.7735704 7.05749601,31.3967577 C7.0438389,31.4095759 7.02972378,31.42144 7.01594176,31.4340923 L9.13042008,33.6748366 C9.56636494,34.1365421 10.3631406,34.102526 10.9010141,33.5985079 L29.4843817,16.1913815 L28.8417482,15.5104385 C28.6848164,15.3441333 28.6758227,15.096148 28.8217622,14.9594617 L28.9323515,14.8558787 C29.0783326,14.7191508 29.3261592,14.7433354 29.4831326,14.9096821 L30.1257245,15.5906251 L34.5352214,11.46029 C35.0731782,10.9564793 35.1564533,10.1662701 34.7205084,9.70431573 L32.6010336,7.4584276 C32.5370367,7.52521518 32.4715825,7.59121459 32.4030472,7.65538875 C30.6702184,9.27857598 28.1564779,9.41928623 26.7884771,7.96970523 C25.4204763,6.52012424 25.7162692,4.02911322 27.4491396,2.40592599 C27.517675,2.34175183 27.5877926,2.28073038 27.6586596,2.22120232 Z" id="Fill-214"></path>
                    <path d="M8.80340394,19.8957129 C9.05550979,19.8957129 9.2848968,19.8451451 9.49156497,19.7440096 C9.69823314,19.6428741 9.86166222,19.4919038 9.98185222,19.2910985 C10.1020422,19.0902933 10.1621372,18.8477147 10.1621372,18.5633627 L10.1621372,18.5633627 L10.1621372,16.7649099 L9.30028698,16.7649099 L9.30028698,18.5633627 C9.30028698,18.7275247 9.25997936,18.8557762 9.17936412,18.9481173 C9.09874887,19.0404584 8.97929174,19.086629 8.82099272,19.086629 C8.6626937,19.086629 8.54470229,19.0411913 8.46701851,18.9503159 C8.38933473,18.8594405 8.35049284,18.7304562 8.35049284,18.5633627 L8.35049284,18.5633627 L8.35049284,16.7649099 L7.4930398,16.7649099 L7.4930398,18.5633627 C7.4930398,18.8506462 7.54947047,19.0939576 7.66233181,19.2932971 C7.77519315,19.4926366 7.93056071,19.6428741 8.12843449,19.7440096 C8.32630827,19.8451451 8.55129809,19.8957129 8.80340394,19.8957129 Z M11.8638517,19.8649325 C12.1863127,19.8649325 12.4699318,19.7982417 12.714709,19.6648601 C12.9594862,19.5314785 13.1485656,19.3475292 13.2819471,19.1130121 C13.4153287,18.8784951 13.4820195,18.6117319 13.4820195,18.3127226 C13.4820195,18.0107819 13.4160616,17.742553 13.2841457,17.5080359 C13.1522299,17.2735188 12.9638834,17.0910353 12.7191062,16.9605851 C12.474329,16.830135 12.1892442,16.7649099 11.8638517,16.7649099 L11.8638517,16.7649099 L10.6370343,16.7649099 L10.6370343,19.8649325 L11.8638517,19.8649325 Z M11.7978938,19.1042177 L11.4988845,19.1042177 L11.4988845,17.5124331 L11.7978938,17.5124331 C12.0499996,17.5124331 12.2478734,17.5820554 12.3915151,17.7212999 C12.5351568,17.8605444 12.6069777,18.0576853 12.6069777,18.3127226 C12.6069777,18.5648285 12.5351568,18.7597708 12.3915151,18.8975496 C12.2478734,19.0353283 12.0499996,19.1042177 11.7978938,19.1042177 L11.7978938,19.1042177 Z M14.5637295,19.8649325 L14.7308229,19.3592551 L15.8301217,19.3592551 L15.9972151,19.8649325 L16.9074345,19.8649325 L15.7817525,16.7649099 L14.7879865,16.7649099 L13.6579073,19.8649325 L14.5637295,19.8649325 Z M15.6146591,18.6996758 L14.9506827,18.6996758 L15.2804723,17.6971153 L15.6146591,18.6996758 Z M17.8836118,19.8649325 L18.0507052,19.3592551 L19.150004,19.3592551 L19.3170974,19.8649325 L20.2273168,19.8649325 L19.1016348,16.7649099 L18.1078687,16.7649099 L16.9777896,19.8649325 L17.8836118,19.8649325 Z M18.9345414,18.6996758 L18.270565,18.6996758 L18.6003546,17.6971153 L18.9345414,18.6996758 Z M21.3705875,19.8649325 L21.3705875,18.1324376 L22.5182554,19.8649325 L23.3801057,19.8649325 L23.3801057,16.7649099 L22.5182554,16.7649099 L22.5182554,18.5193908 L21.3705875,16.7649099 L20.5087373,16.7649099 L20.5087373,19.8649325 L21.3705875,19.8649325 Z" id="UDAAN" fill-rule="nonzero" transform="translate(15.436573, 18.330311) rotate(-43.000000) translate(-15.436573, -18.330311) "></path>
                </g>
                <text id="Udaan" font-family="Poppins-MediumItalic, Poppins" font-size="30" font-style="italic" font-weight="500">
                    <tspan x="38" y="32">Udaan </tspan>
                </text>
            </g>
        </g>
    </g>
</svg>